<svg width="40" height="40" viewBox="0 0 40 40" fill="none" xmlns="http://www.w3.org/2000/svg">
  <!-- Tree trunk -->
  <rect x="18" y="28" width="4" height="8" fill="#8B4513" rx="1"/>
  
  <!-- Tree branches -->
  <path d="M20 4C20 4 8 12 8 20C8 24 12 28 20 28C28 28 32 24 32 20C32 12 20 4 20 4Z" fill="#22C55E"/>
  
  <!-- Tree highlight -->
  <path d="M20 6C20 6 10 13 10 20C10 23 13 26 20 26C27 26 30 23 30 20C30 13 20 6 20 6Z" fill="#4ADE80"/>
  
  <!-- Tree trunk highlight -->
  <rect x="19" y="28" width="2" height="6" fill="#A0522D" rx="0.5"/>
</svg>

